<svg xmlns="http://www.w3.org/2000/svg" viewBox="0 0 656 256"><defs><style>.cls-1{fill:#cce1fb;}.cls-1,.cls-10,.cls-13,.cls-7,.cls-8,.cls-9{stroke:#1b1464;}.cls-1,.cls-3,.cls-4,.cls-5,.cls-6{stroke-width:0.5px;}.cls-10,.cls-12,.cls-2,.cls-4,.cls-5,.cls-6,.cls-7,.cls-8,.cls-9{fill:none;}.cls-2,.cls-3,.cls-4{stroke:#000;}.cls-3{fill:#a67c52;}.cls-5{stroke:#f7931e;}.cls-12,.cls-6{stroke:#2e3192;}.cls-8{stroke-dasharray:2.99 2.99;}.cls-9{stroke-dasharray:3 3;}.cls-10{stroke-dasharray:2.94 2.94;}.cls-11{fill:#2e3192;}.cls-12,.cls-13{stroke-width:0.75px;}.cls-13{fill:#1b1464;}.cls-14{font-size:12px;}.cls-14,.cls-20{font-family:IBMPlexSans, IBM Plex Sans;}.cls-15{letter-spacing:-0.01em;}.cls-16{letter-spacing:0em;}.cls-17{letter-spacing:0em;}.cls-18{letter-spacing:0.01em;}.cls-19{letter-spacing:-0.01em;}.cls-20{font-size:14px;}.cls-21{letter-spacing:-0.01em;}.cls-22{letter-spacing:-0.01em;}.cls-23{letter-spacing:0em;}.cls-24{letter-spacing:0em;}.cls-25{letter-spacing:-0.01em;}</style></defs><title>Artboard 1active-directory-2</title><g id="objects"><rect class="cls-1" x="353" y="35" width="288.5" height="85.5" rx="11.37" ry="11.37"/><rect class="cls-2" x="0.5" y="47.5" width="142" height="159" rx="12" ry="12"/><rect class="cls-3" x="37" y="58" width="60.5" height="47.81" rx="11.37" ry="11.37"/><rect class="cls-4" x="20.5" y="134.5" width="100" height="58" rx="12" ry="12"/><rect class="cls-2" x="230" y="0.5" width="425.5" height="255" rx="12" ry="12"/><rect class="cls-5" x="378" y="170.86" width="48.67" height="38.46" rx="11.37" ry="11.37"/><rect class="cls-5" x="562.33" y="170" width="48.67" height="38.46" rx="11.37" ry="11.37"/><rect class="cls-5" x="502.9" y="170.86" width="48.67" height="38.46" rx="11.37" ry="11.37"/><rect class="cls-5" x="440.88" y="170.86" width="48.67" height="38.46" rx="11.37" ry="11.37"/><rect class="cls-4" x="352" y="148" width="288.5" height="85.5" rx="11.37" ry="11.37"/><rect class="cls-6" x="546" y="48" width="71.5" height="56.5" rx="11.37" ry="11.37"/><rect class="cls-6" x="458" y="48" width="71.5" height="56.5" rx="11.37" ry="11.37"/><rect class="cls-6" x="367.51" y="48.47" width="71.5" height="56.5" rx="11.37" ry="11.37"/><line class="cls-7" x1="352" y1="95.25" x2="350.5" y2="95.25"/><line class="cls-8" x1="347.51" y1="95.25" x2="265.33" y2="95.25"/><polyline class="cls-7" points="263.84 95.25 262.34 95.25 262.34 96.75"/><line class="cls-9" x1="262.34" y1="99.75" x2="262.34" y2="164.25"/><polyline class="cls-7" points="262.34 165.75 262.34 167.25 260.84 167.25"/><line class="cls-10" x1="257.89" y1="167.25" x2="123.97" y2="167.25"/><line class="cls-7" x1="122.5" y1="167.25" x2="121" y2="167.25"/><line class="cls-11" x1="230" y1="137.5" x2="141.38" y2="137.59"/><line class="cls-12" x1="225.47" y1="137.5" x2="145.91" y2="137.58"/><path class="cls-11" d="M230,137.5a22.67,22.67,0,0,1-6.41-3.56l1.29,3.57-1.29,3.57A22.65,22.65,0,0,1,230,137.5Z"/><path class="cls-11" d="M141.38,137.59a22.67,22.67,0,0,0,6.41-3.57l-1.29,3.57,1.29,3.56A22.65,22.65,0,0,0,141.38,137.59Z"/><line class="cls-13" x1="401.67" y1="148.08" x2="401.67" y2="120.42"/><line class="cls-13" x1="462.67" y1="148.08" x2="462.67" y2="120.42"/><line class="cls-13" x1="524.67" y1="148.08" x2="524.67" y2="120.42"/><line class="cls-13" x1="586.67" y1="148.08" x2="586.67" y2="120.42"/></g><g id="text"><text class="cls-14" transform="translate(54.9 79.23)">User<tspan x="4.73" y="14.4">DC</tspan></text><text class="cls-14" transform="translate(26.15 167.29)">Acti<tspan class="cls-15" x="20.94" y="0">v</tspan><tspan x="26.75" y="0">e Di</tspan><tspan class="cls-16" x="47.22" y="0">r</tspan><tspan x="51.56" y="0">ec</tspan><tspan class="cls-17" x="64.19" y="0">t</tspan><tspan x="68.35" y="0">o</tspan><tspan class="cls-18" x="75.07" y="0">r</tspan><tspan x="79.59" y="0">y</tspan></text><text class="cls-14" transform="translate(159.66 132.29)">IPSec VPN</text><text class="cls-14" transform="translate(477.84 72.29)">Cloud <tspan x="-12.25" y="14.4">Connec</tspan><tspan class="cls-17" x="28.18" y="14.4">t</tspan><tspan x="32.34" y="14.4">or</tspan></text><text class="cls-14" transform="translate(387.84 72.29)">Cloud <tspan x="-12.25" y="14.4">Connec</tspan><tspan class="cls-17" x="28.18" y="14.4">t</tspan><tspan x="32.34" y="14.4">or</tspan></text><text class="cls-14" transform="translate(565.84 70.29)">Cloud <tspan x="-12.25" y="14.4">Connec</tspan><tspan class="cls-17" x="28.18" y="14.4">t</tspan><tspan x="32.34" y="14.4">or</tspan></text><text class="cls-14" transform="translate(454.49 195.29)">V<tspan class="cls-19" x="7.31" y="0">D</tspan><tspan x="15.22" y="0">A</tspan></text><text class="cls-14" transform="translate(391.49 195.29)">V<tspan class="cls-19" x="7.31" y="0">D</tspan><tspan x="15.22" y="0">A</tspan></text><text class="cls-14" transform="translate(517.49 194.29)">V<tspan class="cls-19" x="7.31" y="0">D</tspan><tspan x="15.22" y="0">A</tspan></text><text class="cls-14" transform="translate(576.49 193.29)">V<tspan class="cls-19" x="7.31" y="0">D</tspan><tspan x="15.22" y="0">A</tspan></text><text class="cls-20" transform="translate(245.31 21.77)">IBM <tspan class="cls-21" x="29.41" y="0">P</tspan><tspan x="37.76" y="0">ri</tspan><tspan class="cls-22" x="46.4" y="0">v</tspan><tspan x="53.16" y="0">a</tspan><tspan class="cls-23" x="60.63" y="0">t</tspan><tspan x="65.49" y="0">e IP add</tspan><tspan class="cls-24" x="117.58" y="0">r</tspan><tspan x="122.65" y="0">e</tspan><tspan class="cls-25" x="130.34" y="0">s</tspan><tspan x="137.07" y="0">s spa</tspan><tspan class="cls-25" x="169.61" y="0">c</tspan><tspan x="176.57" y="0">e</tspan></text></g></svg>